# xmcd
#
# Track frame offsets: 
#        150
#        11892
#        23707
#        35915
#        48340
#        63365
#        74812
#        88235
#        100762
#        114397
#        125202
#        135927
#        145107
#        160792
#        174582
#        184870
#        197155
#        211092
#        223350
#        237087
#
# Disc length: 3316 seconds
#
# Revision: 3
# Processed by: cddbd v1.4PL0 Copyright (c) Steve Scherf et al.
# Submitted via: ExactAudioCopy v0.90b3
#
DISCID=2d0cf214
DTITLE=The Kendalls - 20 Favorites
DYEAR=1900
DGENRE=Country
TTITLE0=Heaven's Just A Sin Away
TTITLE1=Love Is A Long, Hard Road
TTITLE2=Sweet Desire
TTITLE3=I'm Already Blue
TTITLE4=If You Let Him Drive You Crazy (He Will)
TTITLE5=Bye Bye Love
TTITLE6=The Pittsburgh Stealers
TTITLE7=Pick Me Up On Your Way Down
TTITLE8=Thank God For The Radio
TTITLE9=I'd Dance Every Dance With You
TTITLE10=You'd Make An Angel Want To Cheat
TTITLE11=Blue Blue Day
TTITLE12=Just Like Real People
TTITLE13=Heartaches By The Number
TTITLE14=I Had A Lovely Time
TTITLE15=Curtain In The Window
TTITLE16=Cryin' Time
TTITLE17=It Don't Feel Like Sinnin' To Me
TTITLE18=Once More
TTITLE19=Temporarily Out Of Order
EXTD=
EXTT0=
EXTT1=
EXTT2=
EXTT3=
EXTT4=
EXTT5=
EXTT6=
EXTT7=
EXTT8=
EXTT9=
EXTT10=
EXTT11=
EXTT12=
EXTT13=
EXTT14=
EXTT15=
EXTT16=
EXTT17=
EXTT18=
EXTT19=
PLAYORDER=
